Coordinates
version=1
nRows=19
nColumns=36
inDegrees=yes

Units are S.I. units (second, meters, Newtons, ...)
If the header above contains a line with 'inDegrees', this indicates whether rotational values are in degrees (yes) or radians (no).

endheader
time	pelvis_tilt	pelvis_list	pelvis_rotation	pelvis_tx	pelvis_ty	pelvis_tz	hip_flexion_r	hip_adduction_r	hip_rotation_r	knee_angle_r	knee_angle_r_beta	ankle_angle_r	subtalar_angle_r	mtp_angle_r	hip_flexion_l	hip_adduction_l	hip_rotation_l	knee_angle_l	knee_angle_l_beta	ankle_angle_l	subtalar_angle_l	mtp_angle_l	lumbar_extension	lumbar_bending	lumbar_rotation	arm_flex_r	arm_add_r	arm_rot_r	elbow_flex_r	pro_sup_r	arm_flex_l	arm_add_l	arm_rot_l	elbow_flex_l	pro_sup_l
      0.00000000	      7.06413258	     -2.34400171	      1.42950425	     -0.99483344	      1.23860021	     -0.07436048	     -7.50274174	      2.73351033	     -1.28802962	      7.10876278	      0.12407132	      2.42953940	    -14.52819813	     -5.49415997	     -8.86571721	     -2.62442111	     -0.30005542	      4.04125056	      0.07053313	      8.41346246	     -7.21035646	     -5.49415997	    -16.81037855	      4.58274127	      0.15483329	      6.44395258	    -10.23236048	      1.52172257	     29.10583307	     81.54383364	      2.64141082	     -8.15881145	      9.69765661	     29.60051374	     71.06532855
      0.00416670	      5.28878939	     -1.70722215	      1.38709369	     -0.99203614	      1.23620753	     -0.07522294	     -5.50850375	      2.33003270	     -0.69045874	      7.47753945	      0.13050768	      5.66310288	    -12.22462360	     -5.96376145	     -6.22043829	     -1.44773599	     -0.28762500	      4.86749809	      0.08495387	      7.73692915	     -6.49164068	     -5.96376145	    -13.67266831	      4.08214957	      0.01315573	      5.42946988	     -9.78877856	     -1.56678016	     29.03931692	     79.28385660	      2.54999870	     -7.53908906	      5.78540887	     27.91480817	     69.67469466
      0.00833330	      4.84073214	     -1.05534578	      1.04597255	     -0.99248766	      1.23464304	     -0.07427988	     -5.20569588	      1.53880698	     -1.54889283	      6.93856562	      0.12110082	      6.56602440	    -11.74502356	     -6.87709915	     -5.79186735	     -0.84835544	     -1.51040163	      4.92563092	      0.08596848	      7.40403115	     -6.13156925	     -6.87709915	    -13.00160487	      3.04754449	      0.46524972	      4.64963896	     -9.44886183	     -3.95578231	     30.22456175	     80.95324901	      2.70872896	     -8.32830025	      6.43925995	     28.05539292	     72.65190601
      0.01250000	      5.35640329	     -0.68378810	      0.91281278	     -0.99385943	      1.23958710	     -0.07438616	     -5.86362731	      1.05399969	     -1.95302185	      6.53759097	      0.11410249	      7.22626861	    -11.03802691	     -6.89521352	     -6.77709208	     -0.39669261	     -1.82558774	      4.37616287	      0.07637845	      7.04600902	     -6.68819912	     -6.89521352	    -13.72256290	      2.47452169	      0.62158413	      4.56659736	     -9.38296235	     -4.06943903	     30.58264650	     80.60809070	      2.92671712	     -8.90231494	      7.43527419	     28.27673851	     72.82904627
      0.01666670	      5.66608739	     -0.55817707	      0.91105515	     -0.99311645	      1.23994378	     -0.07367347	     -6.34299962	      1.00408803	     -2.22842637	      6.29550663	      0.10987732	      7.72247877	    -10.36017901	     -6.99542279	     -7.34012101	     -0.27298659	     -2.01861381	      4.03382356	      0.07040350	      6.72759881	     -7.18985985	     -6.99542279	    -14.16476598	      2.30365305	      0.99101405	      4.17307387	     -9.36202284	     -4.14816133	     31.26381042	     78.26671256	      3.53004441	     -9.35469217	     10.18676130	     27.88787719	     72.16346159
      0.02083330	      6.07946343	     -0.45959738	      0.86215155	     -0.99334263	      1.23987155	     -0.07370737	     -6.85849840	      0.95564934	     -2.27434800	      6.11343601	      0.10669959	      7.85251493	    -10.37651794	     -7.03136944	     -7.88266906	     -0.17592100	     -2.30353061	      3.84637377	      0.06713189	      6.65930065	     -7.49312240	     -7.03136944	    -14.79464768	      2.16792873	      1.13920519	      4.14078522	     -9.33949903	     -4.18108928	     31.79964247	     77.19964126	      3.77294340	     -9.40138258	     10.37130196	     28.23897708	     71.45180178
      0.02500000	      6.27114316	     -0.37643809	      0.90325446	     -0.99403359	      1.23842748	     -0.07355697	     -7.10955253	      0.92929654	     -2.33009260	      5.95347930	      0.10390782	      7.98803284	    -10.20916038	     -7.11609204	     -8.07112749	     -0.07690402	     -2.22835458	      3.78345553	      0.06603376	      6.58989595	     -7.80723222	     -7.11609204	    -15.08092888	      2.06149786	      1.42691030	      3.91436190	     -9.42407262	     -4.04675648	     32.22035074	     75.16864380	      4.45513818	     -9.54692994	     12.41896664	     27.75344619	     70.23238055
      0.02916670	      6.45860346	     -0.36112436	      0.89879252	     -0.99443242	      1.23840440	     -0.07320148	     -7.39780723	      0.95947237	     -2.39551615	      5.85434490	      0.10217759	      8.02602046	    -10.30300940	     -7.14684808	     -8.21433354	     -0.05326186	     -2.25540456	      3.80478415	      0.06640601	      6.56484139	     -7.85469815	     -7.14684808	    -15.42854141	      2.03465625	      1.45180312	      3.91531713	     -9.43276874	     -3.96087584	     32.62122847	     74.19492295	      4.60335386	     -9.49159131	     12.33126673	     28.00552144	     69.43651309
      0.03333330	      6.57156734	     -0.36885698	      0.89425288	     -0.99411168	      1.24008619	     -0.07279304	     -7.60169197	      0.99316906	     -2.46570280	      5.77912456	      0.10086475	      7.94167101	    -10.48659537	     -7.17783548	     -8.31016303	     -0.06489421	     -2.18117461	      3.76275654	      0.06567249	      6.47536262	     -7.81293228	     -7.17783548	    -15.67689344	      2.02646876	      1.47619408	      3.89137087	     -9.42186295	     -3.80195605	     32.93213285	     73.24945492	      4.72974754	     -9.45182643	     12.30616381	     28.16684368	     68.67906100
      0.03750000	      6.69182202	     -0.39588876	      0.92425164	     -0.99395151	      1.24074661	     -0.07289713	     -7.86368603	      1.03616676	     -2.57966451	      5.60726819	      0.09786529	      7.75273266	    -10.70831301	     -7.22149535	     -8.42863307	     -0.07633924	     -1.80612673	      3.70204547	      0.06461288	      6.43537839	     -7.84510854	     -7.22149535	    -15.96597022	      2.07626351	      1.46464688	      3.84817236	     -9.44259459	     -3.57510957	     33.33297231	     71.87682416	      4.80136084	     -9.43060712	     12.26702858	     28.44717499	     67.63507377
      0.04166670	      6.68701662	     -0.44844408	      0.90622100	     -0.99392768	      1.24075669	     -0.07307787	     -7.95618347	      1.09902376	     -2.56075296	      5.47898793	      0.09562638	      7.62315038	    -10.92058924	     -7.23291887	     -8.44426271	     -0.11933124	     -1.72079099	      3.63906851	      0.06351373	      6.37984455	     -7.59352519	     -7.23291887	    -15.92807008	      2.14387163	      1.48077615	      3.90422310	     -9.48157930	     -3.19906497	     33.12208122	     71.59874686	      5.00827174	     -9.37933599	     12.53143521	     28.10286391	     67.34400464
      0.04583330	      6.63419222	     -0.48057926	      0.86696716	     -0.99448207	      1.24100013	     -0.07287713	     -7.98077042	      1.13694109	     -2.62825801	      5.30227072	      0.09254208	      7.46272240	    -11.18520632	     -7.26227949	     -8.39527956	     -0.15835679	     -1.69475835	      3.61225289	      0.06304571	      6.36552425	     -7.39428715	     -7.26227949	    -15.84690460	      2.16991845	      1.53077590	      4.06863463	     -9.58171294	     -2.43887613	     32.79190550	     70.91943528	      5.19468463	     -9.38891825	     13.09031547	     27.65872495	     66.65395401
      0.05000000	      6.77933701	     -0.51126178	      0.85212095	     -0.99364751	      1.24089412	     -0.07317263	     -8.28157307	      1.17488068	     -2.78780192	      5.06844211	      0.08846100	      7.25809728	    -11.36011995	     -7.28355171	     -8.65447543	     -0.19212549	     -1.58353916	      3.44868438	      0.06019090	      6.27520512	     -7.28588687	     -7.28355171	    -16.13102450	      2.21125124	      1.58664413	      3.95785904	     -9.62460604	     -2.30996414	     33.26203311	     70.06371094	      5.13431216	     -9.44065544	     13.05631286	     28.18841797	     66.01348753
      0.05416670	      6.79630272	     -0.56434801	      0.78064131	     -0.99472396	      1.23936803	     -0.07202167	     -8.30463189	      1.25506637	     -2.81665535	      4.98117575	      0.08693792	      7.00983145	    -11.80747798	     -7.30669433	     -8.70980249	     -0.25684857	     -1.55685020	      3.40843923	      0.05948849	      6.32011943	     -7.10683684	     -7.30669433	    -16.16972839	      2.23930599	      1.60465005	      4.03829862	     -9.67060271	     -1.94489169	     33.13425653	     69.53576465	      5.25393585	     -9.46964032	     13.23843286	     28.04319246	     65.54583475
      0.05833330	      6.89350008	     -0.59917476	      0.75731843	     -0.99576361	      1.24120278	     -0.07219165	     -8.41592721	      1.29764144	     -2.95023743	      4.88108658	      0.08519103	      6.74236188	    -12.11309265	     -7.32192065	     -8.85052439	     -0.31727815	     -1.64570619	      3.35209171	      0.05850504	      6.23780668	     -6.99315121	     -7.32192065	    -16.33355712	      2.28120519	      1.61797927	      4.07876114	     -9.75833625	     -1.75621820	     33.19700848	     69.17523237	      5.33178324	     -9.51023059	     13.32134108	     28.11418807	     65.24053252
      0.06250000	      6.95130323	     -0.60924946	      0.73633332	     -0.99589000	      1.23986095	     -0.07258648	     -8.46934468	      1.29272821	     -3.08782785	      4.76927053	      0.08323947	      6.46458067	    -12.50975703	     -7.33550315	     -8.92271242	     -0.34845940	     -1.65866993	      3.34481828	      0.05837809	      6.05866788	     -7.20533873	     -7.33550315	    -16.46446236	      2.26903224	      1.62641316	      4.15025805	     -9.80803584	     -1.54421371	     33.18831633	     68.82787525	      5.43725619	     -9.55052225	     13.41171331	     28.08688635	     64.94498247
      0.06666670	      6.81438013	     -0.59836969	      0.72553551	     -0.99556767	      1.24095666	     -0.07269118	     -8.28123213	      1.28052615	     -3.15419997	      4.67289568	      0.08155742	      6.31797358	    -12.56314727	     -7.37156886	     -8.79157254	     -0.35021369	     -1.61197278	      3.29724058	      0.05754770	      5.77134510	     -7.46449942	     -7.37156886	    -16.27054006	      2.24533094	      1.59367783	      4.27392797	     -9.85169725	     -1.07406612	     32.80434806	     68.04132569	      5.52557063	     -9.54786784	     13.56964867	     27.74626125	     64.33839163
      0.07083330	      6.86034010	     -0.56395520	      0.78089868	     -0.99485266	      1.24239960	     -0.07287290	     -8.38353239	      1.27398275	     -3.13688866	      4.44147668	      0.07751839	      6.12558303	    -12.49290253	     -7.38167000	     -8.89587340	     -0.33522377	     -1.61824703	      3.20567073	      0.05594951	      5.62982787	     -7.49176844	     -7.38167000	    -16.40336162	      2.21041585	      1.58754002	      4.17118977	     -9.87260132	     -1.00348114	     33.12081128	     67.62640615	      5.45389942	     -9.60230244	     13.50114801	     28.12345294	     64.05950505
      0.07500000	      6.75514951	     -0.52810407	      0.78795471	     -0.99538620	      1.24270214	     -0.07283817	     -8.30412521	      1.24911426	     -3.15932256	      4.29247318	      0.07491779	      6.07367771	    -12.31002380	     -7.39660912	     -8.81064847	     -0.31057442	     -1.74166427	      3.16209402	      0.05518895	      5.50476377	     -7.46712674	     -7.39660912	    -16.19472031	      2.15619634	      1.57908191	      4.30529543	     -9.86341507	     -0.63888378	     32.56773588	     67.58113865	      5.60296397	     -9.57008271	     13.84282672	     27.60413196	     63.94861886
